<svg xmlns="http://www.w3.org/2000/svg" version="1.1" xmlns:xlink="http://www.w3.org/1999/xlink" xmlns:svgjs="http://svgjs.dev/svgjs" width="1000" height="176" viewBox="0 0 1000 176"><g transform="matrix(1,0,0,1,-0.6060358664387309,0.2527456558492105)"><svg viewBox="0 0 396 70" data-background-color="#f9f5eb" preserveAspectRatio="xMidYMid meet" height="176" width="1000" xmlns="http://www.w3.org/2000/svg" xmlns:xlink="http://www.w3.org/1999/xlink"><g id="tight-bounds" transform="matrix(1,0,0,1,0.23999024563096327,-0.10052384039457252)"><svg viewBox="0 0 395.52 70.20104768078915" height="70.20104768078915" width="395.52"><g><svg viewBox="0 0 395.52 70.20104768078915" height="70.20104768078915" width="395.52"><g><svg viewBox="0 0 395.52 70.20104768078915" height="70.20104768078915" width="395.52"><g transform="matrix(1,0,0,1,0,48.98634977696671)"><svg viewBox="0 0 395.52 21.21469790382244" height="21.21469790382244" width="395.52"><g id="textblocktransform"><svg viewBox="0 0 395.52 21.21469790382244" height="21.21469790382244" width="395.52" id="textblock"><g><svg viewBox="0 0 395.52 21.21469790382244" height="21.21469790382244" width="395.52"><g transform="matrix(1,0,0,1,0,0)"><svg width="395.52" viewBox="2.4000000953674316 -37.849998474121094 887.0799560546875 47.849998474121094" height="21.21469790382244" data-palette-color="#002b5b"><g class="undefined-text-0" data-fill-palette-color="primary" id="text-0"><path d="M20.9 0.4Q15.65 0.4 11.43-1.93 7.2-4.25 4.8-8.33 2.4-12.4 2.4-17.5L2.4-17.5Q2.4-22.6 4.8-26.68 7.2-30.75 11.45-33.08 15.7-35.4 20.95-35.4L20.95-35.4Q25.05-35.4 28.45-34.02 31.85-32.65 34.25-29.95L34.25-29.95 31-26.8Q27.05-30.95 21.15-30.95L21.15-30.95Q17.25-30.95 14.1-29.2 10.95-27.45 9.18-24.38 7.4-21.3 7.4-17.5L7.4-17.5Q7.4-13.7 9.18-10.63 10.95-7.55 14.1-5.8 17.25-4.05 21.15-4.05L21.15-4.05Q27-4.05 31-8.25L31-8.25 34.25-5.1Q31.85-2.4 28.43-1 25 0.4 20.9 0.4L20.9 0.4ZM50.35-26.75Q55.85-26.75 58.77-24.05 61.7-21.35 61.7-16L61.7-16 61.7 0 57.15 0 57.15-3.5Q55.95-1.65 53.72-0.68 51.5 0.3 48.45 0.3L48.45 0.3Q44 0.3 41.32-1.85 38.65-4 38.65-7.5L38.65-7.5Q38.65-11 41.2-13.13 43.75-15.25 49.3-15.25L49.3-15.25 56.9-15.25 56.9-16.2Q56.9-19.3 55.1-20.95 53.3-22.6 49.8-22.6L49.8-22.6Q47.45-22.6 45.2-21.83 42.95-21.05 41.4-19.75L41.4-19.75 39.4-23.35Q41.45-25 44.3-25.88 47.15-26.75 50.35-26.75L50.35-26.75ZM49.25-3.4Q52-3.4 54-4.63 56-5.85 56.9-8.1L56.9-8.1 56.9-11.8 49.5-11.8Q43.4-11.8 43.4-7.7L43.4-7.7Q43.4-5.7 44.95-4.55 46.5-3.4 49.25-3.4L49.25-3.4ZM84-5L85.5-1.55Q84.45-0.65 82.9-0.18 81.34 0.3 79.7 0.3L79.7 0.3Q75.7 0.3 73.5-1.85 71.3-4 71.3-8L71.3-8 71.3-22.55 66.8-22.55 66.8-26.5 71.3-26.5 71.3-32.3 76.09-32.3 76.09-26.5 83.7-26.5 83.7-22.55 76.09-22.55 76.09-8.2Q76.09-6.05 77.17-4.9 78.25-3.75 80.25-3.75L80.25-3.75Q82.45-3.75 84-5L84-5ZM105.44-26.75Q110.49-26.75 113.47-23.83 116.44-20.9 116.44-15.25L116.44-15.25 116.44 0 111.64 0 111.64-14.7Q111.64-18.55 109.79-20.5 107.94-22.45 104.49-22.45L104.49-22.45Q100.59-22.45 98.34-20.18 96.09-17.9 96.09-13.65L96.09-13.65 96.09 0 91.29 0 91.29-37.1 96.09-37.1 96.09-22.75Q97.59-24.65 100.02-25.7 102.44-26.75 105.44-26.75L105.44-26.75ZM149.29-13.1Q149.29-12.55 149.19-11.65L149.19-11.65 127.69-11.65Q128.14-8.15 130.77-6.03 133.39-3.9 137.29-3.9L137.29-3.9Q142.04-3.9 144.94-7.1L144.94-7.1 147.59-4Q145.79-1.9 143.12-0.8 140.44 0.3 137.14 0.3L137.14 0.3Q132.94 0.3 129.69-1.43 126.44-3.15 124.67-6.25 122.89-9.35 122.89-13.25L122.89-13.25Q122.89-17.1 124.62-20.2 126.34-23.3 129.37-25.03 132.39-26.75 136.19-26.75L136.19-26.75Q139.99-26.75 142.97-25.03 145.94-23.3 147.62-20.2 149.29-17.1 149.29-13.1L149.29-13.1ZM136.19-22.7Q132.74-22.7 130.42-20.6 128.09-18.5 127.69-15.1L127.69-15.1 144.69-15.1Q144.29-18.45 141.97-20.58 139.64-22.7 136.19-22.7L136.19-22.7ZM160.54-22.05Q161.79-24.35 164.24-25.55 166.69-26.75 170.19-26.75L170.19-26.75 170.19-22.1Q169.79-22.15 169.09-22.15L169.09-22.15Q165.19-22.15 162.96-19.83 160.74-17.5 160.74-13.2L160.74-13.2 160.74 0 155.94 0 155.94-26.5 160.54-26.5 160.54-22.05ZM176.44 0L176.44-26.5 181.24-26.5 181.24 0 176.44 0ZM178.84-31.6Q177.44-31.6 176.51-32.5 175.59-33.4 175.59-34.7L175.59-34.7Q175.59-36 176.51-36.93 177.44-37.85 178.84-37.85L178.84-37.85Q180.24-37.85 181.16-36.98 182.09-36.1 182.09-34.8L182.09-34.8Q182.09-33.45 181.16-32.52 180.24-31.6 178.84-31.6L178.84-31.6ZM204.53-26.75Q209.58-26.75 212.56-23.83 215.53-20.9 215.53-15.25L215.53-15.25 215.53 0 210.73 0 210.73-14.7Q210.73-18.55 208.88-20.5 207.03-22.45 203.58-22.45L203.58-22.45Q199.68-22.45 197.43-20.18 195.18-17.9 195.18-13.65L195.18-13.65 195.18 0 190.38 0 190.38-26.5 194.98-26.5 194.98-22.5Q196.43-24.55 198.91-25.65 201.38-26.75 204.53-26.75L204.53-26.75ZM248.38-13.1Q248.38-12.55 248.28-11.65L248.28-11.65 226.78-11.65Q227.23-8.15 229.86-6.03 232.48-3.9 236.38-3.9L236.38-3.9Q241.13-3.9 244.03-7.1L244.03-7.1 246.68-4Q244.88-1.9 242.21-0.8 239.53 0.3 236.23 0.3L236.23 0.3Q232.03 0.3 228.78-1.43 225.53-3.15 223.76-6.25 221.98-9.35 221.98-13.25L221.98-13.25Q221.98-17.1 223.71-20.2 225.43-23.3 228.46-25.03 231.48-26.75 235.28-26.75L235.28-26.75Q239.08-26.75 242.06-25.03 245.03-23.3 246.71-20.2 248.38-17.1 248.38-13.1L248.38-13.1ZM235.28-22.7Q231.83-22.7 229.51-20.6 227.18-18.5 226.78-15.1L226.78-15.1 243.78-15.1Q243.38-18.45 241.06-20.58 238.73-22.7 235.28-22.7L235.28-22.7Z" fill="#002b5b" data-fill-palette-color="primary"></path><path d="M258.63-4.35L279.03-4.35 279.03 0 253.63 0 253.63-35 278.33-35 278.33-30.65 258.63-30.65 258.63-19.9 276.18-19.9 276.18-15.65 258.63-15.65 258.63-4.35ZM296.08-26.75Q301.58-26.75 304.5-24.05 307.43-21.35 307.43-16L307.43-16 307.43 0 302.88 0 302.88-3.5Q301.68-1.65 299.45-0.68 297.23 0.3 294.18 0.3L294.18 0.3Q289.73 0.3 287.05-1.85 284.38-4 284.38-7.5L284.38-7.5Q284.38-11 286.93-13.13 289.48-15.25 295.03-15.25L295.03-15.25 302.63-15.25 302.63-16.2Q302.63-19.3 300.83-20.95 299.03-22.6 295.53-22.6L295.53-22.6Q293.18-22.6 290.93-21.83 288.68-21.05 287.13-19.75L287.13-19.75 285.13-23.35Q287.18-25 290.03-25.88 292.88-26.75 296.08-26.75L296.08-26.75ZM294.98-3.4Q297.73-3.4 299.73-4.63 301.73-5.85 302.63-8.1L302.63-8.1 302.63-11.8 295.23-11.8Q289.13-11.8 289.13-7.7L289.13-7.7Q289.13-5.7 290.68-4.55 292.23-3.4 294.98-3.4L294.98-3.4ZM320.93-22.05Q322.18-24.35 324.63-25.55 327.08-26.75 330.58-26.75L330.58-26.75 330.58-22.1Q330.18-22.15 329.48-22.15L329.48-22.15Q325.58-22.15 323.35-19.83 321.13-17.5 321.13-13.2L321.13-13.2 321.13 0 316.33 0 316.33-26.5 320.93-26.5 320.93-22.05ZM336.82 0L336.82-37.1 341.62-37.1 341.62 0 336.82 0ZM369.52-26.5L374.22-26.5 361.37 2.65Q359.67 6.7 357.4 8.35 355.12 10 351.92 10L351.92 10Q349.97 10 348.15 9.38 346.32 8.75 345.12 7.55L345.12 7.55 347.17 3.95Q349.22 5.9 351.92 5.9L351.92 5.9Q353.67 5.9 354.85 4.98 356.02 4.05 356.97 1.8L356.97 1.8 357.82-0.05 346.12-26.5 351.12-26.5 360.37-5.3 369.52-26.5Z" fill="#0063db" data-fill-palette-color="secondary"></path><path d="M395.12 0.4Q389.87 0.4 385.65-1.93 381.42-4.25 379.02-8.33 376.62-12.4 376.62-17.5L376.62-17.5Q376.62-22.6 379.02-26.68 381.42-30.75 385.67-33.08 389.92-35.4 395.17-35.4L395.17-35.4Q399.27-35.4 402.67-34.02 406.07-32.65 408.47-29.95L408.47-29.95 405.22-26.8Q401.27-30.95 395.37-30.95L395.37-30.95Q391.47-30.95 388.32-29.2 385.17-27.45 383.4-24.38 381.62-21.3 381.62-17.5L381.62-17.5Q381.62-13.7 383.4-10.63 385.17-7.55 388.32-5.8 391.47-4.05 395.37-4.05L395.37-4.05Q401.22-4.05 405.22-8.25L405.22-8.25 408.47-5.1Q406.07-2.4 402.65-1 399.22 0.4 395.12 0.4L395.12 0.4ZM429.07-26.75Q434.12-26.75 437.09-23.83 440.07-20.9 440.07-15.25L440.07-15.25 440.07 0 435.27 0 435.27-14.7Q435.27-18.55 433.42-20.5 431.57-22.45 428.12-22.45L428.12-22.45Q424.22-22.45 421.97-20.18 419.72-17.9 419.72-13.65L419.72-13.65 419.72 0 414.92 0 414.92-37.1 419.72-37.1 419.72-22.75Q421.22-24.65 423.64-25.7 426.07-26.75 429.07-26.75L429.07-26.75ZM448.97 0L448.97-26.5 453.77-26.5 453.77 0 448.97 0ZM451.37-31.6Q449.97-31.6 449.04-32.5 448.12-33.4 448.12-34.7L448.12-34.7Q448.12-36 449.04-36.93 449.97-37.85 451.37-37.85L451.37-37.85Q452.77-37.85 453.69-36.98 454.62-36.1 454.62-34.8L454.62-34.8Q454.62-33.45 453.69-32.52 452.77-31.6 451.37-31.6L451.37-31.6ZM462.91 0L462.91-37.1 467.71-37.1 467.71 0 462.91 0ZM497.06-37.1L501.86-37.1 501.86 0 497.26 0 497.26-4.2Q495.66-2 493.21-0.85 490.76 0.3 487.81 0.3L487.81 0.3Q483.96 0.3 480.91-1.4 477.86-3.1 476.14-6.18 474.41-9.25 474.41-13.25L474.41-13.25Q474.41-17.25 476.14-20.3 477.86-23.35 480.91-25.05 483.96-26.75 487.81-26.75L487.81-26.75Q490.66-26.75 493.06-25.68 495.46-24.6 497.06-22.5L497.06-22.5 497.06-37.1ZM488.21-3.9Q490.71-3.9 492.76-5.08 494.81-6.25 495.96-8.38 497.11-10.5 497.11-13.25L497.11-13.25Q497.11-16 495.96-18.13 494.81-20.25 492.76-21.4 490.71-22.55 488.21-22.55L488.21-22.55Q485.66-22.55 483.64-21.4 481.61-20.25 480.44-18.13 479.26-16 479.26-13.25L479.26-13.25Q479.26-10.5 480.44-8.38 481.61-6.25 483.64-5.08 485.66-3.9 488.21-3.9L488.21-3.9ZM525.11-26.75Q530.16-26.75 533.13-23.83 536.11-20.9 536.11-15.25L536.11-15.25 536.11 0 531.31 0 531.31-14.7Q531.31-18.55 529.46-20.5 527.61-22.45 524.16-22.45L524.16-22.45Q520.26-22.45 518.01-20.18 515.76-17.9 515.76-13.65L515.76-13.65 515.76 0 510.96 0 510.96-37.1 515.76-37.1 515.76-22.75Q517.26-24.65 519.68-25.7 522.11-26.75 525.11-26.75L525.11-26.75ZM556.36 0.3Q552.41 0.3 549.26-1.45 546.11-3.2 544.33-6.28 542.56-9.35 542.56-13.25L542.56-13.25Q542.56-17.15 544.33-20.23 546.11-23.3 549.26-25.03 552.41-26.75 556.36-26.75L556.36-26.75Q560.31-26.75 563.43-25.03 566.56-23.3 568.33-20.23 570.11-17.15 570.11-13.25L570.11-13.25Q570.11-9.35 568.33-6.28 566.56-3.2 563.43-1.45 560.31 0.3 556.36 0.3L556.36 0.3ZM556.36-3.9Q558.91-3.9 560.93-5.08 562.96-6.25 564.11-8.38 565.26-10.5 565.26-13.25L565.26-13.25Q565.26-16 564.11-18.13 562.96-20.25 560.93-21.4 558.91-22.55 556.36-22.55L556.36-22.55Q553.81-22.55 551.78-21.4 549.76-20.25 548.58-18.13 547.41-16 547.41-13.25L547.41-13.25Q547.41-10.5 548.58-8.38 549.76-6.25 551.78-5.08 553.81-3.9 556.36-3.9L556.36-3.9ZM588.1 0.3Q584.15 0.3 581-1.45 577.85-3.2 576.08-6.28 574.3-9.35 574.3-13.25L574.3-13.25Q574.3-17.15 576.08-20.23 577.85-23.3 581-25.03 584.15-26.75 588.1-26.75L588.1-26.75Q592.05-26.75 595.18-25.03 598.3-23.3 600.08-20.23 601.85-17.15 601.85-13.25L601.85-13.25Q601.85-9.35 600.08-6.28 598.3-3.2 595.18-1.45 592.05 0.3 588.1 0.3L588.1 0.3ZM588.1-3.9Q590.65-3.9 592.68-5.08 594.7-6.25 595.85-8.38 597-10.5 597-13.25L597-13.25Q597-16 595.85-18.13 594.7-20.25 592.68-21.4 590.65-22.55 588.1-22.55L588.1-22.55Q585.55-22.55 583.53-21.4 581.5-20.25 580.33-18.13 579.15-16 579.15-13.25L579.15-13.25Q579.15-10.5 580.33-8.38 581.5-6.25 583.53-5.08 585.55-3.9 588.1-3.9L588.1-3.9ZM628.7-37.1L633.5-37.1 633.5 0 628.9 0 628.9-4.2Q627.3-2 624.85-0.85 622.4 0.3 619.45 0.3L619.45 0.3Q615.6 0.3 612.55-1.4 609.5-3.1 607.78-6.18 606.05-9.25 606.05-13.25L606.05-13.25Q606.05-17.25 607.78-20.3 609.5-23.35 612.55-25.05 615.6-26.75 619.45-26.75L619.45-26.75Q622.3-26.75 624.7-25.68 627.1-24.6 628.7-22.5L628.7-22.5 628.7-37.1ZM619.85-3.9Q622.35-3.9 624.4-5.08 626.45-6.25 627.6-8.38 628.75-10.5 628.75-13.25L628.75-13.25Q628.75-16 627.6-18.13 626.45-20.25 624.4-21.4 622.35-22.55 619.85-22.55L619.85-22.55Q617.3-22.55 615.28-21.4 613.25-20.25 612.08-18.13 610.9-16 610.9-13.25L610.9-13.25Q610.9-10.5 612.08-8.38 613.25-6.25 615.28-5.08 617.3-3.9 619.85-3.9L619.85-3.9Z" fill="#ea5455" data-fill-palette-color="accent"></path><path d="M643.75-4.35L664.15-4.35 664.15 0 638.75 0 638.75-35 663.45-35 663.45-30.65 643.75-30.65 643.75-19.9 661.3-19.9 661.3-15.65 643.75-15.65 643.75-4.35ZM691.75-37.1L696.55-37.1 696.55 0 691.95 0 691.95-4.2Q690.35-2 687.9-0.85 685.45 0.3 682.5 0.3L682.5 0.3Q678.65 0.3 675.6-1.4 672.55-3.1 670.82-6.18 669.1-9.25 669.1-13.25L669.1-13.25Q669.1-17.25 670.82-20.3 672.55-23.35 675.6-25.05 678.65-26.75 682.5-26.75L682.5-26.75Q685.35-26.75 687.75-25.68 690.15-24.6 691.75-22.5L691.75-22.5 691.75-37.1ZM682.9-3.9Q685.4-3.9 687.45-5.08 689.5-6.25 690.65-8.38 691.8-10.5 691.8-13.25L691.8-13.25Q691.8-16 690.65-18.13 689.5-20.25 687.45-21.4 685.4-22.55 682.9-22.55L682.9-22.55Q680.35-22.55 678.32-21.4 676.3-20.25 675.12-18.13 673.95-16 673.95-13.25L673.95-13.25Q673.95-10.5 675.12-8.38 676.3-6.25 678.32-5.08 680.35-3.9 682.9-3.9L682.9-3.9ZM725.55-26.5L730.34-26.5 730.34 0 725.8 0 725.8-4Q724.34-1.95 721.97-0.83 719.59 0.3 716.8 0.3L716.8 0.3Q711.5 0.3 708.44-2.63 705.39-5.55 705.39-11.25L705.39-11.25 705.39-26.5 710.19-26.5 710.19-11.8Q710.19-7.95 712.05-5.98 713.89-4 717.34-4L717.34-4Q721.14-4 723.34-6.3 725.55-8.6 725.55-12.8L725.55-12.8 725.55-26.5ZM751.04 0.3Q746.99 0.3 743.82-1.45 740.64-3.2 738.84-6.28 737.04-9.35 737.04-13.25L737.04-13.25Q737.04-17.15 738.84-20.23 740.64-23.3 743.82-25.03 746.99-26.75 751.04-26.75L751.04-26.75Q754.64-26.75 757.47-25.3 760.29-23.85 761.84-21.1L761.84-21.1 758.19-18.75Q756.94-20.65 755.09-21.6 753.24-22.55 750.99-22.55L750.99-22.55Q748.39-22.55 746.32-21.4 744.24-20.25 743.07-18.13 741.89-16 741.89-13.25L741.89-13.25Q741.89-10.45 743.07-8.33 744.24-6.2 746.32-5.05 748.39-3.9 750.99-3.9L750.99-3.9Q753.24-3.9 755.09-4.85 756.94-5.8 758.19-7.7L758.19-7.7 761.84-5.4Q760.29-2.65 757.47-1.18 754.64 0.3 751.04 0.3L751.04 0.3ZM777.69-26.75Q783.19-26.75 786.12-24.05 789.04-21.35 789.04-16L789.04-16 789.04 0 784.49 0 784.49-3.5Q783.29-1.65 781.06-0.68 778.84 0.3 775.79 0.3L775.79 0.3Q771.34 0.3 768.67-1.85 765.99-4 765.99-7.5L765.99-7.5Q765.99-11 768.54-13.13 771.09-15.25 776.64-15.25L776.64-15.25 784.24-15.25 784.24-16.2Q784.24-19.3 782.44-20.95 780.64-22.6 777.14-22.6L777.14-22.6Q774.79-22.6 772.54-21.83 770.29-21.05 768.74-19.75L768.74-19.75 766.74-23.35Q768.79-25 771.64-25.88 774.49-26.75 777.69-26.75L777.69-26.75ZM776.59-3.4Q779.34-3.4 781.34-4.63 783.34-5.85 784.24-8.1L784.24-8.1 784.24-11.8 776.84-11.8Q770.74-11.8 770.74-7.7L770.74-7.7Q770.74-5.7 772.29-4.55 773.84-3.4 776.59-3.4L776.59-3.4ZM811.34-5L812.84-1.55Q811.79-0.65 810.24-0.18 808.69 0.3 807.04 0.3L807.04 0.3Q803.04 0.3 800.84-1.85 798.64-4 798.64-8L798.64-8 798.64-22.55 794.14-22.55 794.14-26.5 798.64-26.5 798.64-32.3 803.44-32.3 803.44-26.5 811.04-26.5 811.04-22.55 803.44-22.55 803.44-8.2Q803.44-6.05 804.51-4.9 805.59-3.75 807.59-3.75L807.59-3.75Q809.79-3.75 811.34-5L811.34-5ZM818.64 0L818.64-26.5 823.44-26.5 823.44 0 818.64 0ZM821.04-31.6Q819.64-31.6 818.71-32.5 817.79-33.4 817.79-34.7L817.79-34.7Q817.79-36 818.71-36.93 819.64-37.85 821.04-37.85L821.04-37.85Q822.44-37.85 823.36-36.98 824.29-36.1 824.29-34.8L824.29-34.8Q824.29-33.45 823.36-32.52 822.44-31.6 821.04-31.6L821.04-31.6ZM843.93 0.3Q839.98 0.3 836.83-1.45 833.68-3.2 831.91-6.28 830.13-9.35 830.13-13.25L830.13-13.25Q830.13-17.15 831.91-20.23 833.68-23.3 836.83-25.03 839.98-26.75 843.93-26.75L843.93-26.75Q847.88-26.75 851.01-25.03 854.13-23.3 855.91-20.23 857.68-17.15 857.68-13.25L857.68-13.25Q857.68-9.35 855.91-6.28 854.13-3.2 851.01-1.45 847.88 0.3 843.93 0.3L843.93 0.3ZM843.93-3.9Q846.48-3.9 848.51-5.08 850.53-6.25 851.68-8.38 852.83-10.5 852.83-13.25L852.83-13.25Q852.83-16 851.68-18.13 850.53-20.25 848.51-21.4 846.48-22.55 843.93-22.55L843.93-22.55Q841.38-22.55 839.36-21.4 837.33-20.25 836.16-18.13 834.98-16 834.98-13.25L834.98-13.25Q834.98-10.5 836.16-8.38 837.33-6.25 839.36-5.08 841.38-3.9 843.93-3.9L843.93-3.9ZM878.48-26.75Q883.53-26.75 886.51-23.83 889.48-20.9 889.48-15.25L889.48-15.25 889.48 0 884.68 0 884.68-14.7Q884.68-18.55 882.83-20.5 880.98-22.45 877.53-22.45L877.53-22.45Q873.63-22.45 871.38-20.18 869.13-17.9 869.13-13.65L869.13-13.65 869.13 0 864.33 0 864.33-26.5 868.93-26.5 868.93-22.5Q870.38-24.55 872.86-25.65 875.33-26.75 878.48-26.75L878.48-26.75Z" fill="#002b5b" data-fill-palette-color="primary"></path></g></svg></g></svg></g></svg></g></svg></g><g transform="matrix(1,0,0,1,173.84069251156137,0)"><svg viewBox="0 0 47.838614976877246 43.978068754623926" height="43.978068754623926" width="47.838614976877246"><g><svg xmlns="http://www.w3.org/2000/svg" xmlns:xlink="http://www.w3.org/1999/xlink" version="1.1" x="0" y="0" viewBox="0 0 94.93413543701172 87.27301025390625" enable-background="new 0 0 94.934 87.273" xml:space="preserve" width="47.838614976877246" height="43.978068754623926" class="icon-icon-0" data-fill-palette-color="accent" id="icon-0"><path fill="#ea5455" d="M40.805 63.931c0.068 0.047 3.688 2.93 9.139 2.938 5.506-0.014 8.991-3.443 9.057-3.496 0.288-0.285 0.293-0.748 0.01-1.035-0.281-0.291-0.745-0.295-1.034-0.012-0.001 0-0.175 0.17-0.545 0.459-1.115 0.871-3.842 2.625-7.487 2.619-2.458 0-4.527-0.66-5.979-1.322-0.727-0.332-1.298-0.664-1.681-0.908-0.384-0.246-0.565-0.393-0.567-0.391-0.317-0.252-0.778-0.197-1.029 0.119-0.251 0.314-0.197 0.775 0.119 1.029H40.805zM53.505 61.859c0.941 0 1.703-1.236 1.703-2.762 0-1.523-0.762-2.76-1.703-2.76s-1.702 1.236-1.702 2.76C51.803 60.623 52.563 61.859 53.505 61.859zM45.988 61.859c0.939 0 1.702-1.236 1.702-2.762 0-1.523-0.763-2.76-1.702-2.76-0.941 0-1.704 1.236-1.704 2.76C44.284 60.623 45.046 61.859 45.988 61.859zM35.273 34.642c-0.002 0-0.26 0.282-0.79 0.734-1.596 1.372-5.47 4.116-10.655 4.108-3.488 0-6.422-1.03-8.487-2.068-1.028-0.517-1.842-1.036-2.391-1.42-0.549-0.383-0.818-0.624-0.819-0.624-0.299-0.262-0.753-0.23-1.012 0.069-0.263 0.297-0.233 0.752 0.069 1.013h-0.003c0.065 0.049 5.086 4.455 12.642 4.468 7.612-0.019 12.436-5.251 12.499-5.305 0.27-0.291 0.254-0.746-0.037-1.017C35.998 34.336 35.545 34.35 35.273 34.642zM28.734 33.997c1.3 0 2.352-1.706 2.352-3.815 0-2.109-1.055-3.816-2.352-3.816s-2.353 1.708-2.353 3.816C26.38 32.289 27.435 33.997 28.734 33.997zM83.523 37.937c-0.002 0-0.226 0.239-0.693 0.63-1.404 1.183-4.818 3.55-9.384 3.545-3.074 0-5.659-0.89-7.478-1.785-0.908-0.448-1.623-0.895-2.107-1.227-0.482-0.331-0.716-0.538-0.719-0.536-0.294-0.25-0.731-0.216-0.981 0.077-0.25 0.292-0.217 0.732 0.076 0.982 0.062 0.045 4.511 3.871 11.209 3.881 6.752-0.017 11.028-4.562 11.086-4.613 0.267-0.279 0.253-0.719-0.023-0.983C84.227 37.644 83.786 37.654 83.523 37.937zM93.429 43.418c2-1.104 1.43-1.842 1.43-1.842s-0.57-0.737-2.449-2.26c-0.644-0.521-1.023-1.048-1.25-1.517 1.608-2.941 2.522-6.316 2.524-9.906C93.682 16.468 84.424 7.21 73.001 7.208c-11.425 0.002-20.687 9.26-20.687 20.686 0 0.394 0.017 0.785 0.04 1.174 0.01 0.188 0.026 0.375 0.042 0.56 0.015 0.153 0.028 0.306 0.046 0.459 0.303 2.856 1.18 5.542 2.525 7.933-0.01 0.037-0.026 0.074-0.039 0.111-1.68-0.561-3.471-0.876-5.339-0.876-4.096 0-7.836 1.471-10.755 3.897-0.084-0.07-0.163-0.143-0.25-0.21 4.931-4.275 8.057-10.58 8.057-17.622C46.639 10.44 36.201 0.002 23.322 0 10.442 0.002 0.002 10.44 0 23.322c0.002 7.252 3.314 13.732 8.509 18.008-0.001-0.002-0.005-0.003-0.006-0.005-1.483 1.235-2.73 2.681-3.741 4.315-3.447 5.543-4.389 12.869-4.4 20.816 0.071 0.99 0.621 1.273 0.854 1.459 0.494 0.312 0.94 0.451 1.467 0.625 0.772 0.244 1.648 0.469 2.292 0.674 0.103 0.033 0.2 0.066 0.286 0.098 0.305 3.766 2.165 6.334 4.908 7.471 2.858 1.23 6.365 1.281 10.373 1.295 0.982 0 1.997-0.006 3.044-0.006 4.56-0.01 8.599 0.02 11.9-0.951-0.05 0.881-0.08 1.773-0.082 2.682 0.074 0.98 0.605 1.229 0.786 1.379 0.405 0.252 0.687 0.326 1.021 0.439 0.39 0.123 0.805 0.232 1.139 0.332 0.287 2.168 1.523 3.822 3.238 4.508 1.873 0.793 4.004 0.799 6.392 0.812 0.585 0 1.188-0.002 1.809-0.002 2.838-0.012 5.372 0.033 7.541-0.674 1.078-0.359 2.096-0.961 2.83-1.912 0.587-0.756 0.956-1.682 1.123-2.732 0.276-0.084 0.624-0.182 0.949-0.281 0.28-0.088 0.548-0.172 0.84-0.311 0.149-0.074 0.308-0.15 0.516-0.326 0.184-0.162 0.564-0.516 0.586-1.232-0.002-0.721-0.018-1.434-0.043-2.139 0.375 0.037 0.756 0.072 1.145 0.105 2.731 0.221 5.668 0.309 7.959 0.309 2.47 0 5.393-0.158 8.078-0.49 2.7-0.344 5.102-0.809 6.767-1.619 0.688-0.33 1.25-0.914 1.531-1.555 0.29-0.643 0.349-1.277 0.354-1.873-0.013-1.305-0.292-2.588-0.307-3.85 0.471-0.162 1.193-0.359 1.844-0.561 0.401-0.127 0.776-0.252 1.145-0.424 0.185-0.09 0.37-0.184 0.594-0.375 0.2-0.176 0.572-0.535 0.592-1.232-0.012-6.98-0.633-13.445-3.596-18.385-0.447-0.75-0.971-1.438-1.534-2.096 0.724 0.01 1.334-0.326 1.334-0.326L93.429 43.418zM47.54 54.724c6.658 1.49 12.926-0.072 12.926-0.072s1.238 2.311 2.403 3.721c-1.799 5.623-7.058 9.695-13.279 9.707-7.705-0.016-13.936-6.246-13.95-13.947 0-0.018 0.002-0.031 0.002-0.049l2.098-3.123C37.74 50.96 40.884 53.236 47.54 54.724zM51.993 70.816c-0.089 0.172-0.188 0.34-0.312 0.48-0.402 0.441-0.896 0.811-2.156 0.83-1.721-0.047-2.175-0.648-2.605-1.346-0.002-0.002-0.002-0.002-0.003-0.004 0.873 0.139 1.76 0.23 2.673 0.23C50.408 71.007 51.205 70.931 51.993 70.816zM22.788 75.203c-0.77 0.002-1.522 0.004-2.246 0.004-3.958 0.018-7.215-0.146-9.22-1.053-1.949-0.928-2.996-2.164-3.234-5.697-0.043-0.342-0.137-0.588-0.246-0.775-0.117-0.494-0.565-2.617-0.421-5.496 0.163-3.297 0.399-8.383 0.399-8.383L6.072 66.56c-0.62-0.215-1.269-0.373-1.913-0.572-0.345-0.1-0.672-0.201-0.924-0.289 0.056-7.41 1.088-13.967 3.961-18.535 1.006-1.588 2.227-2.963 3.724-4.098 0 0 0 0 0-0.002 1.101 0.694 2.261 1.299 3.476 1.801h-0.002l-1.319 1.463 2.379 1.877-1.122 1.953 8.456 10.98V75.203zM22.241 49.732l-0.343 3.889c-0.443-1.346-0.806-2.557-0.928-3.217-0.269-1.416-0.483-2.838-0.633-3.961-0.005-0.002-0.009-0.002-0.014-0.002 0.467 0.059 0.941 0.104 1.415 0.137l-0.895 2.396L22.241 49.732zM20.963 56.044l-4.636-6.023 1.282-2.234-2.108-1.666 0.575-0.635c0.831 0.27 1.678 0.5 2.547 0.678 0.156 1.201 0.397 2.871 0.714 4.547C19.562 51.863 20.254 54.007 20.963 56.044zM23.322 43.767c-10.76-0.02-19.555-8.314-20.379-18.861l4.006-5.967c0 0 4.345 3.144 13.542 5.201 9.199 2.058 17.859-0.098 17.859-0.098s2.446 4.559 4.239 6.102C39.774 38.073 32.22 43.75 23.322 43.767zM30.33 51.703l-4.292 5.143c0.595-1.793 1.224-3.824 1.598-5.484 0.445-1.975 0.85-3.936 1.139-5.371 0.673-0.16 1.339-0.352 1.988-0.568-0.005 0-0.008 0.002-0.014 0.006 0.324 0.902 0.632 1.873 0.81 2.453l-2.831 2.277L30.33 51.703zM25.875 46.482c0.384-0.043 0.769-0.08 1.147-0.139-0.003 0-0.006 0.002-0.012 0.002-0.271 1.336-0.619 2.992-0.994 4.648-0.156 0.693-0.364 1.467-0.594 2.266l-0.573-3.475 1.586-0.854L25.875 46.482zM35.806 73.964c-0.822 0.365-1.807 0.637-2.982 0.826-2.277 0.373-5.146 0.41-8.372 0.412V61.339l8.147-9.76-1.357-1.311 2.238-1.799-0.159-0.531c-0.007-0.018-0.467-1.598-1.007-3.1-0.008 0.004-0.013 0.004-0.018 0.006 1.377-0.573 2.689-1.28 3.919-2.095 0.195 0.137 0.375 0.285 0.559 0.432-2.263 2.652-3.729 6.007-4 9.699-0.034 0.393-0.057 0.785-0.06 1.184 0 0.023-0.003 0.045-0.003 0.068 0 0.547 0.031 1.086 0.082 1.619 0.419 4.371 2.509 8.248 5.62 11.004-0.102 0.146-0.209 0.289-0.304 0.443C36.878 69.171 36.186 71.474 35.806 73.964zM60.409 79.156c-0.279 0.088-0.544 0.172-0.835 0.305-0.004 0.002-0.01 0.006-0.013 0.006l-0.993-7.23c0 0 0.147 3.15 0.249 5.193 0.062 1.219-0.049 2.209-0.149 2.816-0.101 0.176-0.188 0.395-0.216 0.697-0.064 0.979-0.304 1.551-0.607 1.947-0.441 0.578-1.252 0.988-2.673 1.217-1.397 0.227-3.261 0.236-5.383 0.234-0.627 0-1.232 0.002-1.809 0.002-2.333 0.014-4.212-0.105-5.22-0.568-0.95-0.488-1.382-0.877-1.548-2.822-0.047-0.354-0.145-0.602-0.256-0.785-0.096-0.615-0.194-1.57-0.137-2.738 0.103-2.043 0.249-5.193 0.249-5.193l-0.994 7.238c-0.585-0.275-1.104-0.371-1.635-0.541-0.033-0.012-0.066-0.021-0.098-0.029 0.069-4.125 0.702-7.713 2.249-10.146 0.058-0.088 0.123-0.17 0.183-0.256 0.899 0.553 1.852 1.023 2.854 1.402 0.064 0.52 0.234 1.354 0.709 2.258 0.703 1.426 2.488 2.943 5.19 2.896h0.13c2.592 0 4.309-1.518 4.969-2.938 0.406-0.812 0.578-1.572 0.654-2.117 1.257-0.451 2.447-1.035 3.548-1.756 0.116 0.162 0.239 0.32 0.348 0.492 1.487 2.412 2.014 6.016 2.067 10.172C60.988 78.988 60.69 79.072 60.409 79.156zM91.042 65.349c-0.419 0.141-1.053 0.324-1.625 0.494-0.178 0.053-0.35 0.107-0.521 0.166l-0.762-3.656-1.624-7.797c0 0-0.111 4.74 0.034 7.662 0.104 2.051 0.26 4.402 0.347 5.629-0.018 0.221-0.023 0.459-0.023 0.689 0.009 1.674 0.319 3.127 0.307 4.002 0.002 0.385-0.053 0.621-0.101 0.719-0.055 0.092-0.051 0.113-0.239 0.219-1.031 0.525-3.331 1.043-5.866 1.348-2.547 0.316-5.388 0.469-7.737 0.469-2.217 0-5.104-0.086-7.734-0.299-0.53-0.041-1.049-0.092-1.554-0.146-0.296-2.814-0.937-5.416-2.268-7.629-0.165-0.277-0.353-0.539-0.542-0.801 3.275-3.078 5.333-7.438 5.333-12.285-0.001-2.613-0.612-5.076-1.67-7.283 0.472 0.207 0.944 0.412 1.435 0.584 0.251 0.854 0.891 2.504 2.427 4.494 2.168 2.805 4.365 4.369 4.413 4.406l0.569 0.404 0.551-0.434c0.058-0.045 1.984-1.564 4.122-4.713 1.263-1.854 1.762-3.354 1.954-4.336 1.389-0.521 2.696-1.197 3.923-1.99 1.53 1.045 2.716 2.354 3.658 3.889C90.257 53.105 91 58.841 91.042 65.349zM68.469 48.058c1.461 0.326 2.974 0.518 4.532 0.518 1.779 0 3.5-0.24 5.146-0.664-0.252 0.697-0.671 1.582-1.381 2.629-1.001 1.473-1.948 2.557-2.637 3.268-0.209 0.217-0.396 0.398-0.552 0.547-0.186-0.154-0.41-0.348-0.664-0.576-0.762-0.688-1.775-1.701-2.774-2.996C69.313 49.712 68.8 48.783 68.469 48.058zM86.515 43.536c0.033-0.027 0.068-0.052 0.101-0.08 0.013 0.066 0.028 0.118 0.042 0.182C86.612 43.602 86.562 43.572 86.515 43.536zM73.001 45.792c-8.312-0.018-15.288-5.673-17.309-13.348 0.491-0.051 1.091-0.164 1.818-0.399 0 0 10.276-3.336 13.1-6.975 2.822-3.64 2.958-5.224 2.958-5.224s0.134-1.585 0.971 0.541c0 0 1.632 4.146 5.883 6.562 4.25 2.414 8.853 6.195 8.853 6.195s0.05 0.037 0.118 0.084c0.169 0.198 0.336 0.379 0.498 0.537C87.455 40.758 80.824 45.775 73.001 45.792zM68.584 37.365c1.154 0 2.089-1.515 2.089-3.384 0-1.868-0.935-3.383-2.089-3.383-1.152 0-2.087 1.515-2.087 3.383C66.497 35.85 67.433 37.365 68.584 37.365zM77.8 37.365c1.153 0 2.089-1.515 2.089-3.384 0-1.868-0.936-3.383-2.089-3.383s-2.089 1.515-2.089 3.383C75.713 35.85 76.648 37.365 77.8 37.365zM18.344 33.997c1.302 0 2.354-1.706 2.354-3.815 0-2.109-1.054-3.816-2.354-3.816-1.298 0-2.352 1.708-2.352 3.816C15.992 32.289 17.045 33.997 18.344 33.997z" data-fill-palette-color="accent"></path></svg></g></svg></g><g></g></svg></g></svg></g><defs></defs></svg><rect width="395.52" height="70.20104768078915" fill="none" stroke="none" visibility="hidden"></rect></g></svg></g></svg>